# File produced by Open Asset Import Library (http://www.assimp.sf.net)
# (assimp v3.1.187496374)

mtllib 4.obj.mtl

# 28 vertex positions
v  33.6623 0 -23.5161
v  33.6623 0 -10.6059
v  33.6623 5 -23.5161
v  33.6623 5 -10.6059
v  24.6975 0 -10.6059
v  24.6975 5 -10.6059
v  33.6623 0 -7.38328
v  33.6623 0 -0.527812
v  33.6623 5 -7.38328
v  33.6623 5 -0.527812
v  21.2405 0 -7.38328
v  21.2405 5 -7.38328
v  21.2405 0 -10.6059
v  21.2405 5 -10.6059
v  34.3069 0 -29.1606
v  34.3069 5 -29.1606
v  37.178 0 -29.1606
v  37.178 5 -29.1606
v  37.178 0 -10.6059
v  37.178 5 -10.6059
v  41.0452 0 -10.6059
v  41.0452 5 -10.6059
v  41.0452 0 -7.38328
v  41.0452 5 -7.38328
v  37.178 0 -7.38328
v  37.178 5 -7.38328
v  37.178 0 -0.527812
v  37.178 5 -0.527812

# 0 UV coordinates

# 8 vertex normals
vn -1 0 0
vn 0.821386 0 0.570373
vn 0 0 -1
vn 0 0 1
vn -0.817611 0 -0.57577
vn 1 0 0
vn 0 1 0
vn -0 -1 -0

# Mesh '<STL_BINARY>' with 56 faces
g <STL_BINARY>
usemtl DefaultMaterial
f  1//1 2//1 3//1
f  3//1 2//1 4//1
f  5//2 1//2 6//2
f  6//2 1//2 3//2
f  2//3 5//3 4//3
f  4//3 5//3 6//3
f  7//1 8//1 9//1
f  9//1 8//1 10//1
f  11//4 7//4 12//4
f  12//4 7//4 9//4
f  13//1 11//1 14//1
f  14//1 11//1 12//1
f  15//5 13//5 16//5
f  16//5 13//5 14//5
f  17//3 15//3 18//3
f  18//3 15//3 16//3
f  19//6 17//6 20//6
f  20//6 17//6 18//6
f  21//3 19//3 22//3
f  22//3 19//3 20//3
f  23//6 21//6 24//6
f  24//6 21//6 22//6
f  25//4 23//4 26//4
f  26//4 23//4 24//4
f  27//6 25//6 28//6
f  28//6 25//6 26//6
f  8//4 27//4 10//4
f  10//4 27//4 28//4
f  28//7 26//7 10//7
f  10//7 26//7 9//7
f  9//7 26//7 20//7
f  24//7 22//7 26//7
f  26//7 22//7 20//7
f  9//7 20//7 4//7
f  6//7 12//7 9//7
f  4//7 6//7 9//7
f  4//7 20//7 3//7
f  3//7 20//7 18//7
f  3//7 18//7 16//7
f  16//7 14//7 3//7
f  3//7 14//7 6//7
f  6//7 14//7 12//7
f  27//8 8//8 25//8
f  25//8 8//8 7//8
f  25//8 7//8 19//8
f  19//8 21//8 25//8
f  25//8 21//8 23//8
f  19//8 7//8 2//8
f  2//8 7//8 5//8
f  5//8 7//8 11//8
f  19//8 2//8 1//8
f  17//8 19//8 1//8
f  5//8 13//8 1//8
f  1//8 13//8 15//8
f  1//8 15//8 17//8
f  5//8 11//8 13//8

